<?xml version="1.0" standalone="no"?>
<!DOCTYPE svg PUBLIC "-//W3C//DTD SVG 20010904//EN"
 "http://www.w3.org/TR/2001/REC-SVG-20010904/DTD/svg10.dtd">
<svg version="1.0" xmlns="http://www.w3.org/2000/svg"
 width="2169.000000pt" height="603.000000pt" viewBox="0 0 2169.000000 603.000000"
 preserveAspectRatio="xMidYMid meet">

<g transform="translate(0.000000,603.000000) scale(0.100000,-0.100000)"
fill="#000000" stroke="none">
<path d="M4816 4964 c-9 -8 -16 -23 -16 -32 0 -24 -31 -102 -41 -102 -5 0 -9
-6 -9 -14 0 -7 -9 -25 -20 -39 -11 -14 -20 -34 -20 -46 0 -14 -5 -19 -15 -15
-10 4 -15 0 -15 -15 0 -12 -6 -21 -14 -21 -8 0 -19 -13 -25 -30 -5 -16 -15
-30 -20 -30 -6 0 -11 -6 -11 -14 0 -8 -6 -21 -13 -28 -8 -7 -19 -23 -26 -36
-18 -34 -52 -28 -81 16 -13 20 -40 55 -58 77 -19 22 -57 85 -86 140 -38 75
-62 107 -94 132 -72 55 -88 42 -52 -42 11 -26 20 -66 20 -89 0 -24 3 -46 7
-50 4 -3 12 -22 19 -41 14 -43 3 -277 -14 -298 -10 -11 -31 -123 -32 -164 0
-7 -9 -13 -19 -13 -13 0 -36 24 -68 71 -122 180 -144 224 -164 334 -11 59 -71
251 -90 288 -15 28 -50 67 -61 67 -4 0 -8 -9 -8 -20 0 -11 4 -20 8 -20 4 0 13
-28 20 -62 6 -35 18 -88 26 -118 7 -30 19 -98 25 -150 15 -119 39 -251 57
-313 21 -69 8 -77 -41 -23 -43 48 -47 55 -135 240 -29 60 -62 126 -74 145 -13
20 -40 69 -61 109 -33 65 -57 93 -70 80 -6 -6 12 -80 22 -87 12 -9 39 -67 69
-146 29 -79 128 -280 181 -368 60 -100 39 -94 -209 54 -122 74 -227 136 -233
138 -5 2 -21 12 -35 21 -106 72 -430 212 -430 186 0 -3 33 -24 73 -47 107 -63
345 -234 402 -290 47 -46 67 -68 177 -194 23 -27 50 -57 58 -65 18 -17 44 -58
52 -81 5 -12 0 -14 -23 -11 -15 2 -31 12 -34 21 -2 9 -18 22 -35 29 -16 8 -30
19 -30 27 0 7 -15 23 -33 35 -19 13 -44 42 -56 64 -20 38 -70 82 -128 114 -12
7 -23 19 -23 26 0 8 -12 17 -27 21 -16 3 -41 13 -58 20 -45 20 -85 27 -85 15
0 -5 7 -10 15 -10 8 0 15 -6 15 -12 0 -7 18 -30 41 -51 35 -33 42 -37 56 -25
15 11 16 11 10 -4 -5 -14 -1 -18 14 -18 12 0 23 -8 26 -20 3 -11 12 -20 19
-20 8 0 14 -4 14 -10 0 -5 9 -10 20 -10 11 0 30 -15 44 -36 13 -20 35 -42 48
-48 13 -6 23 -18 23 -26 0 -10 12 -16 33 -18 29 -3 32 -6 32 -37 0 -19 -4 -37
-10 -40 -22 -13 -8 -26 24 -24 19 2 38 0 42 -4 4 -4 -5 -7 -19 -7 -15 0 -27
-4 -27 -10 0 -5 6 -10 14 -10 8 0 16 -7 20 -15 7 -18 -37 -19 -259 -5 -523 33
-829 68 -970 111 -16 4 -88 15 -160 24 -71 8 -156 19 -187 25 -151 26 -174 30
-192 30 -75 0 129 -48 274 -66 30 -3 84 -16 120 -29 36 -12 83 -25 105 -29 94
-16 286 -61 520 -121 225 -58 333 -79 535 -105 36 -5 119 -21 185 -35 185 -40
329 -63 486 -75 203 -17 234 -15 211 12 -6 7 -11 18 -12 23 -3 14 -76 75 -89
75 -21 0 -160 141 -154 156 8 21 16 18 69 -26 27 -22 56 -40 66 -40 9 0 20 -4
23 -10 8 -13 55 -13 55 0 0 6 -7 13 -16 17 -26 10 -64 52 -53 59 5 3 17 0 25
-7 8 -7 36 -22 63 -34 26 -13 70 -38 97 -57 54 -37 108 -64 139 -70 16 -2 21
3 23 30 4 35 28 45 39 15 12 -37 133 -142 200 -174 110 -52 149 -58 256 -36
93 19 198 16 166 -4 -8 -5 -25 -9 -39 -9 -14 -1 -50 -14 -80 -30 -30 -16 -69
-36 -87 -44 -17 -9 -48 -27 -67 -40 -20 -13 -64 -38 -98 -56 -79 -39 -229
-140 -238 -160 -4 -8 -12 -25 -18 -37 -7 -13 -12 -30 -12 -38 0 -9 -13 -24
-30 -33 -16 -9 -30 -23 -30 -29 0 -7 -10 -13 -23 -13 -13 0 -32 -8 -43 -18
-10 -10 -41 -29 -69 -42 -27 -13 -72 -39 -99 -57 -26 -18 -53 -33 -59 -33 -6
0 -18 -6 -26 -14 -9 -7 -41 -27 -71 -43 -30 -17 -84 -47 -120 -67 -36 -20 -80
-44 -97 -53 -21 -11 -33 -24 -33 -37 0 -17 2 -18 10 -6 8 12 10 11 10 -6 0
-15 -10 -26 -30 -34 -16 -7 -30 -16 -30 -21 0 -5 -6 -9 -14 -9 -7 0 -33 -11
-58 -24 -25 -13 -77 -35 -114 -49 -38 -14 -87 -34 -109 -45 -22 -11 -55 -26
-72 -32 -18 -7 -33 -16 -33 -21 0 -5 -6 -9 -13 -9 -8 0 -40 -13 -73 -29 -32
-15 -77 -36 -99 -45 -22 -10 -58 -26 -80 -36 -22 -10 -54 -20 -70 -23 -17 -3
-64 -21 -105 -40 -41 -19 -124 -53 -185 -77 -60 -24 -119 -47 -130 -52 -11 -4
-92 -34 -180 -64 -88 -31 -180 -63 -204 -72 -25 -9 -40 -17 -34 -19 5 -2 120
32 254 76 134 44 298 96 364 116 66 20 298 95 515 167 910 300 982 325 1329
463 l188 74 94 -11 c63 -7 135 -25 219 -55 115 -40 136 -44 265 -52 169 -10
211 -24 220 -73 3 -18 4 -188 3 -377 l-3 -345 -32 -18 c-24 -15 -61 -20 -155
-25 -68 -3 -130 -9 -138 -14 -11 -6 -9 -8 10 -9 1306 -6 1418 -5 1360 14 -8 2
-67 7 -130 9 -126 5 -163 15 -180 48 -14 25 -29 299 -17 306 5 3 162 7 350 9
446 6 607 27 726 98 48 28 66 47 91 95 25 50 25 62 1 109 -45 89 -199 154
-431 184 -67 9 -333 12 -907 13 -447 1 -816 4 -819 8 -17 17 128 26 246 14
l75 -7 -40 15 c-22 9 -78 19 -125 23 l-85 8 75 8 c80 8 176 -7 235 -38 17 -9
36 -16 44 -16 23 0 -14 35 -60 55 -54 25 -37 35 41 24 35 -5 69 -8 75 -6 21 7
-36 27 -102 35 -67 8 -67 9 -30 17 42 8 148 -10 226 -39 24 -9 46 -14 49 -12
9 9 -20 37 -62 59 -60 32 -235 29 -356 -6 -52 -14 -94 -21 -105 -17 -28 11
-170 138 -170 152 0 7 88 52 195 100 262 119 576 273 585 287 4 8 37 10 108 5
56 -3 147 -1 202 4 69 7 127 6 187 -1 82 -10 91 -10 133 11 35 17 45 27 45 46
0 13 -6 26 -13 29 -9 3 -12 16 -10 34 10 62 -67 95 -292 125 -252 33 -428 20
-1095 -82 -120 -18 -154 -19 -310 -11 -128 7 -192 14 -239 29 -149 48 -149
115 0 259 42 39 68 55 114 68 186 55 291 102 349 160 49 48 61 66 126 189 57
109 86 213 95 346 3 52 10 124 16 159 12 77 4 90 -41 64 -73 -42 -94 -52 -98
-48 -2 2 -7 19 -11 36 -4 18 -11 34 -16 35 -6 2 -30 -24 -54 -56 -25 -33 -47
-60 -50 -60 -4 0 -28 -21 -56 -46 -67 -61 -129 -104 -152 -104 -14 0 -26 16
-43 58 -13 31 -42 98 -66 147 -23 50 -45 101 -49 115 -15 50 -33 60 -59 34z
m-63 -330 c-4 -10 -9 -12 -15 -6 -12 12 -1 35 12 27 5 -3 6 -13 3 -21z m-443
-89 c10 -14 20 -71 13 -78 -6 -7 -23 10 -41 42 -11 18 -11 28 0 52 10 23 14
26 17 12 2 -10 7 -22 11 -28z m388 18 c-5 -25 -28 -28 -28 -4 0 12 6 21 16 21
9 0 14 -7 12 -17z m-3 -53 c3 -5 1 -10 -4 -10 -6 0 -11 5 -11 10 0 6 2 10 4
10 3 0 8 -4 11 -10z m-985 -586 c0 -8 -4 -12 -10 -9 -5 3 -10 10 -10 16 0 5 5
9 10 9 6 0 10 -7 10 -16z m768 -53 c18 -45 24 -113 8 -108 -6 2 -10 13 -8 23
1 12 -12 33 -33 54 -46 45 -48 84 -3 72 11 -3 27 -21 36 -41z m-766 -157 c51
-9 111 -24 133 -35 l40 -19 -60 6 c-86 7 -208 37 -213 52 -5 15 -10 15 100 -4z
m2584 -63 c-3 -4 -31 -11 -63 -14 -85 -9 -196 -41 -232 -66 -20 -14 -31 -31
-31 -46 0 -28 38 -61 80 -70 34 -7 50 -25 23 -25 -40 0 -153 22 -241 46 l-93
26 -107 -21 c-130 -27 -165 -39 -308 -107 -171 -81 -273 -121 -344 -134 -36
-7 -75 -16 -88 -21 -37 -15 -46 -10 -26 12 22 24 125 96 151 106 10 3 25 12
33 19 25 21 172 94 190 94 9 0 20 4 26 9 5 5 46 21 91 36 46 14 85 31 88 36 4
5 20 9 37 9 17 0 45 9 62 19 33 20 210 62 336 80 41 6 86 13 100 15 53 7 321
6 316 -3z m210 -73 c3 -4 4 -14 1 -23 -10 -25 -197 -19 -197 6 0 19 46 29 117
26 39 -1 75 -5 79 -9z m-1310 -652 c79 -14 235 -76 231 -91 -3 -9 -82 -32
-132 -39 -21 -3 -196 112 -203 133 -5 14 14 13 104 -3z m1517 -219 c109 -47
157 -187 103 -304 -36 -76 -78 -100 -196 -113 -113 -12 -220 -13 -237 -2 -8 5
-12 68 -13 217 -1 116 -1 214 -1 219 2 16 302 1 344 -17z"/>
<path d="M6367 3573 c-16 -16 -4 -23 39 -23 40 0 45 2 34 15 -13 15 -61 21
-73 8z"/>
<path d="M2990 4455 c0 -9 55 -55 67 -55 7 0 13 -4 13 -10 0 -5 7 -10 15 -10
8 0 15 -7 15 -15 0 -8 5 -15 11 -15 5 0 7 5 4 10 -4 6 -1 17 5 25 17 21 6 31
-56 54 -55 21 -74 25 -74 16z"/>
<path d="M1688 4023 c6 -2 18 -2 25 0 6 3 1 5 -13 5 -14 0 -19 -2 -12 -5z"/>
<path d="M1758 4003 c7 -3 16 -2 19 1 4 3 -2 6 -13 5 -11 0 -14 -3 -6 -6z"/>
<path d="M1798 3993 c6 -2 18 -2 25 0 6 3 1 5 -13 5 -14 0 -19 -2 -12 -5z"/>
<path d="M2015 3945 c28 -8 77 -21 110 -29 61 -13 234 -63 335 -97 113 -37
272 -80 490 -132 124 -30 257 -62 295 -72 100 -24 144 -34 195 -44 25 -5 88
-20 140 -34 52 -13 124 -30 160 -36 36 -7 84 -17 107 -22 56 -12 106 -12 98 1
-9 15 -73 40 -102 40 -14 0 -39 6 -56 14 -35 15 -104 32 -180 42 -57 8 -68 20
-27 29 38 8 39 25 1 25 -42 0 -368 46 -491 69 -229 44 -464 100 -645 156 -60
18 -155 43 -210 55 -55 11 -116 25 -135 30 -19 5 -57 11 -85 14 l-50 6 50 -15z"/>
<path d="M1675 3520 c-67 -5 -65 -6 45 -11 183 -9 723 -9 745 0 39 16 -605 25
-790 11z"/>
<path d="M2570 3524 c19 -2 149 -8 288 -14 139 -6 286 -15 326 -20 40 -5 150
-12 245 -16 152 -6 171 -5 166 8 -12 31 -135 40 -605 43 -250 2 -439 1 -420
-1z"/>
<path d="M4690 3411 c0 -15 60 -25 73 -12 8 8 7 11 -3 12 -8 0 -27 3 -42 5
-16 3 -28 0 -28 -5z"/>
<path d="M4085 3382 c6 -6 28 -15 50 -21 22 -5 67 -17 100 -27 52 -16 234 -30
222 -17 -3 2 -36 9 -73 14 -38 5 -98 18 -134 29 -82 24 -179 37 -165 22z"/>
<path d="M1605 3370 c-17 -4 35 -9 115 -14 80 -4 206 -11 280 -16 133 -8 366
8 430 30 27 9 -776 9 -825 0z"/>
<path d="M4690 3376 c0 -9 30 -14 35 -6 4 6 -3 10 -14 10 -12 0 -21 -2 -21 -4z"/>
<path d="M4485 3284 c-31 -11 -100 -16 -305 -18 -168 -2 -275 -7 -293 -15 -16
-6 -60 -14 -98 -17 -44 -5 -65 -10 -57 -15 7 -5 -25 -9 -77 -9 -99 0 -132 -10
-97 -29 11 -6 31 -11 44 -11 62 -1 46 -18 -79 -87 -196 -108 -143 -85 -646
-288 -243 -99 -244 -103 -15 -55 240 50 648 171 1026 305 197 69 409 125 478
125 14 0 52 15 83 34 31 19 80 46 109 60 28 15 52 29 52 31 0 11 -88 3 -125
-11z m-465 -124 c16 -9 7 -14 -99 -51 -62 -22 -61 -22 -61 -11 0 5 11 14 24
22 14 7 27 24 31 37 5 23 9 24 48 18 23 -4 49 -11 57 -15z"/>
<path d="M3688 3253 c6 -2 18 -2 25 0 6 3 1 5 -13 5 -14 0 -19 -2 -12 -5z"/>
<path d="M3763 3253 c9 -2 25 -2 35 0 9 3 1 5 -18 5 -19 0 -27 -2 -17 -5z"/>
<path d="M8468 2754 c-9 -3 -19 -15 -22 -27 -3 -12 -18 -37 -33 -55 -16 -17
-48 -58 -73 -89 -25 -31 -68 -84 -96 -118 -28 -33 -106 -132 -174 -220 -67
-87 -128 -165 -134 -173 -6 -8 -37 -43 -70 -78 -74 -80 -111 -94 -271 -100
-134 -6 -168 -11 -161 -23 7 -10 780 -11 797 0 16 10 -30 17 -146 22 -91 5
-140 19 -149 43 -6 17 10 55 49 114 16 25 34 54 40 65 10 19 22 20 291 23
l281 2 27 -34 c15 -20 39 -49 54 -65 15 -17 36 -46 46 -66 36 -66 11 -78 -187
-91 -54 -3 -96 -8 -93 -11 10 -10 2724 -15 2730 -5 3 5 -37 12 -92 15 -127 8
-157 15 -186 42 -27 25 -33 64 -39 263 l-3 112 81 0 c136 0 172 -8 211 -48 19
-19 34 -43 34 -52 0 -9 7 -25 15 -36 8 -10 15 -27 15 -37 0 -31 41 -110 74
-145 40 -43 133 -88 227 -110 115 -26 452 -24 574 5 84 20 178 57 216 86 46
35 64 132 24 132 -15 0 -21 -10 -28 -42 -12 -64 -46 -86 -125 -81 l-63 4 -92
95 c-141 146 -216 176 -514 208 -188 20 -180 25 52 36 191 9 354 54 415 115
25 25 50 74 50 98 0 77 -114 150 -293 188 -38 8 -130 19 -205 24 -168 12
-1709 13 -1716 1 -3 -4 48 -11 112 -14 128 -5 201 -22 209 -46 2 -9 10 -25 16
-36 7 -13 12 -131 15 -352 5 -374 5 -373 -65 -393 -58 -16 -297 -23 -400 -12
-51 6 -110 19 -130 29 -50 23 -121 94 -294 293 -78 91 -146 167 -149 170 -4 3
-40 43 -81 90 -40 47 -90 103 -110 125 -20 22 -47 52 -60 68 -13 15 -37 42
-52 60 l-28 32 -152 2 c-84 1 -159 -1 -169 -3z m2569 -34 c56 -5 116 -15 135
-23 70 -30 138 -115 138 -172 0 -74 -67 -155 -151 -179 -62 -19 -284 -22 -294
-5 -13 19 -22 373 -11 381 14 10 58 9 183 -2z m-2690 -288 c7 -8 25 -29 40
-46 16 -17 46 -53 68 -81 21 -27 44 -56 50 -63 5 -7 21 -24 35 -37 13 -13 21
-27 17 -31 -9 -9 -460 -5 -469 4 -5 5 77 115 170 228 5 5 15 20 21 33 14 24
46 22 68 -7z"/>
<path d="M12430 2740 c-12 -7 -8 -10 15 -10 17 0 80 -5 142 -10 89 -7 118 -13
141 -30 l29 -22 6 -221 c4 -122 9 -280 13 -352 5 -118 4 -133 -14 -161 -18
-27 -29 -33 -84 -43 -36 -6 -104 -11 -151 -11 -49 0 -87 -4 -87 -10 0 -10
1312 -19 1345 -9 31 11 2 17 -106 22 -117 6 -165 24 -183 69 -9 21 -15 90 -18
192 l-4 159 121 -7 c125 -6 154 -16 179 -61 6 -11 17 -25 24 -33 6 -7 12 -23
12 -36 0 -12 7 -31 15 -42 8 -10 15 -28 15 -38 0 -27 56 -111 88 -132 50 -34
120 -62 209 -85 73 -18 116 -22 253 -22 235 -1 397 31 507 101 44 28 58 49 68
105 6 29 4 35 -14 40 -23 6 -33 -5 -37 -41 -7 -64 -75 -101 -154 -83 -33 7
-58 27 -133 103 -52 53 -114 105 -142 120 -74 39 -191 65 -370 84 -88 9 -161
17 -163 19 -2 2 45 6 105 9 265 14 373 35 478 89 99 51 127 144 63 208 -79 79
-244 123 -513 139 -225 13 -1635 13 -1655 0z m1357 -45 c51 -20 108 -81 127
-134 12 -35 12 -47 0 -82 -35 -101 -92 -139 -227 -148 -117 -9 -195 -7 -207 5
-6 7 -16 323 -11 378 2 16 271 0 318 -19z"/>
<path d="M16196 2724 c-3 -9 -6 -17 -6 -19 0 -1 21 -6 48 -10 40 -6 44 -9 25
-16 -14 -5 -41 -2 -75 8 -29 8 -80 15 -113 14 -148 -4 -379 -66 -490 -133 -77
-46 -165 -130 -165 -157 0 -38 139 -56 550 -72 405 -16 899 3 1078 42 68 14
68 31 0 96 -101 95 -270 168 -472 203 -168 29 -221 33 -245 21 -16 -9 -21 -9
-21 0 0 35 -102 56 -114 23z m-210 -129 c-42 -42 -76 -83 -76 -93 0 -10 -5
-23 -12 -30 -6 -6 -14 -31 -17 -54 l-6 -43 -90 3 c-118 3 -187 14 -192 29 -8
23 114 128 195 168 84 42 226 94 255 95 13 0 -6 -24 -57 -75z"/>
<path d="M17554 2713 c3 -16 8 -101 12 -191 8 -205 8 -205 121 -106 168 147
306 241 400 273 46 15 87 21 156 21 l94 0 7 -167 c3 -93 11 -263 18 -379 11
-209 11 -211 -10 -241 -26 -36 -53 -43 -171 -43 -98 0 -161 -9 -161 -21 0 -5
309 -9 697 -9 483 0 694 3 687 10 -6 6 -62 13 -125 17 -202 10 -207 17 -215
271 -7 213 -29 520 -39 545 -6 15 1 17 84 17 120 0 196 -25 357 -118 63 -36
215 -155 270 -210 22 -23 40 -33 56 -30 l23 3 -3 180 c-1 99 -4 186 -7 193 -3
9 -239 12 -1130 12 l-1127 0 6 -27z"/>
<path d="M2648 2703 c7 -3 16 -2 19 1 4 3 -2 6 -13 5 -11 0 -14 -3 -6 -6z"/>
<path d="M3330 2509 c0 -5 5 -7 10 -4 6 3 10 8 10 11 0 2 -4 4 -10 4 -5 0 -10
-5 -10 -11z"/>
<path d="M3285 2494 c-23 -10 -25 -13 -10 -13 21 -1 53 15 45 22 -3 2 -18 -2
-35 -9z"/>
<path d="M3012 2399 c-29 -12 -52 -23 -49 -25 4 -4 127 36 127 42 0 8 -27 2
-78 -17z"/>
<path d="M15240 2409 c-117 -23 -122 -65 -10 -98 70 -21 309 -51 455 -57 120
-5 164 -11 219 -30 119 -41 296 -28 296 21 0 31 -36 44 -138 51 -64 5 -104 2
-152 -10 -59 -15 -81 -15 -250 -1 -260 21 -460 54 -460 77 0 12 64 38 95 38
14 0 25 5 25 10 0 11 -17 11 -80 -1z"/>
<path d="M17200 2404 c50 -10 111 -37 107 -48 -11 -35 -584 -100 -672 -76 -48
13 -79 15 -212 12 -122 -2 -143 -22 -24 -22 84 0 115 -6 105 -21 -3 -5 0 -9 5
-9 6 0 11 -4 11 -10 0 -5 -37 -11 -82 -13 -75 -3 -72 -3 30 -5 82 -1 123 2
149 13 22 10 99 19 207 26 322 19 546 64 546 109 0 19 -66 43 -130 46 -36 1
-54 1 -40 -2z"/>
<path d="M15100 2266 c0 -16 54 -102 82 -132 150 -160 544 -276 988 -291 454
-14 836 63 1105 224 62 38 145 142 145 183 0 26 -12 26 -163 -4 -67 -13 -194
-29 -282 -36 -160 -12 -240 -21 -305 -37 -32 -8 -36 -13 -42 -53 -26 -176
-138 -254 -362 -253 -148 1 -214 22 -271 86 -45 50 -77 109 -90 165 -11 51
-82 71 -305 88 -102 8 -247 25 -322 39 -135 25 -178 29 -178 21z"/>
<path d="M16310 2251 c0 -7 32 -11 87 -11 47 0 84 2 82 4 -2 2 -41 7 -86 10
-57 5 -83 4 -83 -3z"/>
<path d="M6883 1820 c-47 -11 -85 -38 -81 -58 3 -13 17 -18 68 -20 90 -4 106
2 114 40 9 47 -19 58 -101 38z"/>
<path d="M7065 1819 c-3 -8 -1 -27 3 -44 l8 -30 90 0 c77 0 89 2 92 18 7 35
-180 89 -193 56z"/>
<path d="M5314 1739 c-3 -6 0 -15 7 -20 8 -5 269 -9 581 -9 l568 0 26 -40 c15
-22 47 -53 72 -70 54 -36 177 -76 271 -90 87 -13 290 -12 371 0 167 27 309 92
340 157 8 17 24 33 35 35 11 2 2772 0 6135 -3 4792 -4 6118 -3 6129 7 11 10
10 14 -5 22 -12 6 -2267 11 -6194 13 l-6175 4 -5 -36 c-7 -41 -33 -70 -87 -97
-105 -53 -255 -78 -417 -69 -127 7 -195 23 -283 68 -64 32 -94 64 -103 109
l-5 25 -627 3 c-454 1 -629 -1 -634 -9z"/>
<path d="M6788 1705 c-3 -3 -2 -20 1 -38 l7 -32 87 -3 c87 -3 87 -3 98 24 18
48 8 54 -94 54 -52 0 -96 -2 -99 -5z"/>
<path d="M7067 1703 c-3 -5 -2 -23 0 -40 l5 -33 93 0 c85 0 94 2 100 20 3 11
3 29 0 40 -6 18 -15 20 -100 20 -52 0 -96 -3 -98 -7z"/>
<path d="M8054 1583 c-15 -10 -11 -200 5 -216 7 -7 18 -7 35 1 21 10 25 17 23
49 -2 38 -2 38 38 41 64 6 108 -13 136 -55 24 -38 62 -54 81 -35 14 14 -26 78
-52 85 -29 7 -24 20 13 37 43 20 44 59 2 80 -33 16 -261 27 -281 13z m227 -43
c23 -19 23 -20 5 -34 -19 -15 -110 -31 -141 -24 -10 1 -24 19 -31 41 l-13 37
78 0 c64 0 83 -4 102 -20z"/>
<path d="M9015 1581 c-6 -6 -8 -54 -5 -113 l5 -103 134 -3 c74 -1 142 0 150 3
35 14 -17 25 -115 25 l-101 0 -7 32 c-3 17 -3 34 0 37 3 3 50 8 105 9 117 4
133 22 22 23 -104 1 -126 8 -130 41 l-4 27 107 3 c75 2 109 7 112 16 3 9 -28
12 -130 12 -74 0 -138 -4 -143 -9z"/>
<path d="M9983 1582 c-27 -8 -63 -38 -63 -52 0 -25 42 -47 120 -64 96 -20 120
-31 120 -51 0 -23 -75 -38 -161 -30 -50 5 -79 3 -83 -4 -11 -17 37 -24 147
-19 117 4 160 20 165 59 4 31 -14 40 -138 69 -49 12 -93 26 -96 32 -15 23 30
38 112 38 78 0 113 11 78 24 -20 8 -172 6 -201 -2z"/>
<path d="M10812 1583 c-28 -11 4 -23 66 -23 37 0 72 -4 79 -8 8 -5 13 -41 15
-97 l3 -90 30 0 30 0 0 95 0 95 78 3 c56 2 77 6 74 15 -3 9 -53 13 -183 14
-98 1 -185 -1 -192 -4z"/>
<path d="M11878 1583 c-10 -2 -18 -8 -18 -11 0 -4 -34 -50 -75 -102 -41 -52
-75 -98 -75 -102 0 -5 13 -8 30 -8 21 0 34 8 47 28 26 40 30 42 127 42 88 0
88 0 120 -35 24 -26 41 -35 64 -35 18 0 32 4 32 9 0 9 -75 104 -122 155 -10
11 -18 24 -18 28 0 10 -63 39 -82 37 -7 -1 -21 -3 -30 -6z m75 -80 c15 -21 24
-40 19 -45 -13 -13 -115 -5 -119 8 -5 14 45 74 60 74 7 -1 24 -17 40 -37z"/>
<path d="M12748 1582 c-28 -6 -26 -139 2 -175 28 -35 81 -51 170 -51 100 -1
143 9 178 42 27 25 29 33 30 99 1 79 -8 94 -55 85 -23 -4 -24 -8 -23 -66 4
-100 2 -104 -32 -122 -22 -12 -50 -15 -100 -12 -92 5 -106 19 -110 117 -3 63
-6 75 -23 81 -11 3 -28 5 -37 2z"/>
<path d="M13813 1583 l-33 -4 0 -110 0 -109 34 0 c38 0 47 12 35 52 -4 14 -5
29 -1 32 9 10 109 7 136 -4 14 -5 35 -24 46 -42 21 -35 44 -48 72 -40 14 3 15
8 5 30 -16 36 -39 62 -54 62 -23 0 -14 15 22 34 110 59 -61 124 -262 99z m206
-43 c50 -26 4 -60 -84 -60 -29 0 -60 3 -69 6 -16 6 -22 54 -8 68 10 11 136 0
161 -14z"/>
<path d="M14863 1553 c-9 -16 -31 -44 -48 -65 -16 -20 -45 -57 -63 -82 l-33
-46 33 0 c25 0 38 7 52 29 18 27 26 29 102 36 86 7 135 -6 148 -40 7 -20 53
-37 78 -30 17 6 16 10 -14 48 -17 23 -48 60 -67 83 -20 22 -46 52 -58 67 -19
22 -31 27 -68 27 -38 0 -47 -4 -62 -27z m102 -50 c38 -44 33 -53 -33 -53 -32
0 -61 3 -65 6 -3 3 4 21 15 40 24 42 50 44 83 7z"/>
<path d="M15768 1573 c-2 -5 -2 -54 0 -110 3 -107 8 -117 52 -106 20 5 22 10
16 60 -3 29 -9 65 -12 78 -10 40 14 31 142 -54 117 -78 167 -99 192 -83 9 6
12 36 10 113 l-3 104 -30 0 -30 0 -5 -78 c-3 -42 -9 -77 -15 -77 -5 1 -61 37
-124 81 -94 65 -120 79 -152 79 -21 0 -39 -3 -41 -7z"/>
<path d="M16767 1574 c-16 -16 10 -24 79 -24 l74 0 2 -77 c0 -43 1 -86 0 -95
-2 -23 43 -35 64 -17 14 11 16 28 11 101 l-6 87 77 3 c45 2 76 7 75 13 -3 11
-365 20 -376 9z"/>
</g>
</svg>
